<svg width="1024" height="1024" viewBox="0 0 1024 1024" fill="none" xmlns="http://www.w3.org/2000/svg">
<rect width="1024" height="1024" fill="#141414"/>
<path d="M774.292 511.632C774.292 659.763 654.376 780 506.646 780C359.178 780 239 659.763 239 511.632C239 363.766 359.178 243.263 506.646 243.263C654.376 243.263 774.292 363.766 774.292 511.632ZM360.753 395.602V613.98C360.753 627.136 369.149 635.555 382.007 635.555H639.944C648.078 635.555 654.9 628.714 654.9 620.559C654.9 612.14 648.078 605.299 639.944 605.299H393.29C391.715 605.299 390.928 604.51 390.928 602.667V466.641L425.04 501.371C431.337 507.686 437.897 511.106 446.032 511.106C453.641 511.106 460.464 507.948 466.761 501.371L514.254 452.433C515.829 451.118 517.403 451.381 518.454 452.433L566.736 501.634L547.58 520.841C540.758 527.417 544.695 537.416 554.403 540.048L632.072 559.516C640.992 561.884 648.865 554.254 646.503 545.574L626.824 467.43C624.199 457.169 613.967 453.485 607.405 460.326L588.25 480.059L537.346 427.964C531.311 421.65 524.225 418.229 516.355 418.229C508.746 418.229 501.66 421.386 495.363 427.964L448.131 476.639C446.557 478.218 445.769 478.218 443.933 476.639L390.928 422.965V395.602C390.928 387.446 384.106 380.342 375.972 380.342C367.837 380.342 360.753 387.446 360.753 395.602Z" fill="white" fill-opacity="0.85"/>
</svg>
