<svg width="1024" height="1024" viewBox="0 0 1024 1024" fill="none" xmlns="http://www.w3.org/2000/svg">
<path d="M819 515.501C819 683.023 683.468 819 516.5 819C349.828 819 214 683.023 214 515.501C214 348.278 349.828 212 516.5 212C683.468 212 819 348.278 819 515.501ZM351.608 384.281V631.246C351.608 646.124 361.098 655.646 375.63 655.646H667.157C676.35 655.646 684.06 647.91 684.06 638.687C684.06 629.165 676.35 621.429 667.157 621.429H388.382C386.603 621.429 385.713 620.537 385.713 618.452V464.62L424.267 503.896C431.384 511.037 438.799 514.905 447.992 514.905C456.593 514.905 464.304 511.335 471.421 503.896L525.099 448.552C526.878 447.064 528.658 447.362 529.845 448.552L584.415 504.194L562.765 525.915C555.054 533.352 559.503 544.659 570.476 547.636L658.259 569.653C668.341 572.331 677.239 563.703 674.57 553.885L652.328 465.512C649.361 453.908 637.797 449.742 630.381 457.479L608.731 479.795L551.198 420.88C544.377 413.739 536.369 409.871 527.474 409.871C518.873 409.871 510.865 413.441 503.747 420.88L450.365 475.927C448.586 477.712 447.696 477.712 445.62 475.927L385.713 415.226V384.281C385.713 375.057 378.002 367.023 368.809 367.023C359.615 367.023 351.608 375.057 351.608 384.281Z" fill="#FAFAFA" fill-opacity="0.85"/>
</svg>
